<svg xmlns="http://www.w3.org/2000/svg" width="21" height="16" viewBox="0 0 21 16" fill="none">
<path fill-rule="evenodd" clip-rule="evenodd" d="M11.663 2.01372C12.0397 2.87813 12.0153 3.90284 11.5063 4.77674L8.72288 9.55204L8.7229 9.55207L8.69506 9.59947H3.09327C2.14833 9.59947 1.29823 10.0226 0.726562 10.6871L5.78261 2.01399L5.78272 2.01372L6.00547 1.63107C6.13077 1.41561 6.27956 1.22084 6.44575 1.04761C6.45506 1.03781 6.46476 1.0284 6.47433 1.01912L6.48839 1.00538C6.66328 0.840771 6.85992 0.693399 7.07745 0.569296L7.19231 0.503797C7.67435 0.228012 8.20164 0.0961524 8.72284 0.0935669C9.24404 0.0961524 9.77132 0.228012 10.2534 0.503797L10.3682 0.569296C10.5858 0.693399 10.7824 0.840771 10.9573 1.00538C10.9672 1.0146 10.9767 1.02421 10.9861 1.03369L10.9861 1.03369L10.9999 1.04761C11.1661 1.22084 11.3149 1.41561 11.4402 1.63107L11.663 2.01372ZM5.91512 14.3688L8.69513 9.59949H3.09334C2.1484 9.59949 1.2983 10.0226 0.726635 10.6871L0.414264 11.2232C-0.441057 12.6909 0.0714386 14.5843 1.55237 15.4315L1.66723 15.4961C2.00744 15.6909 2.37115 15.8141 2.73921 15.8701C2.8558 15.8839 2.97327 15.8908 3.09334 15.8908H3.52318C4.48813 15.796 5.39566 15.26 5.91512 14.3688Z" fill="#53C6D8"/>
<path fill-rule="evenodd" clip-rule="evenodd" d="M16.3143 6.5601C16.6911 7.42452 16.6667 8.44923 16.1577 9.32312L13.3742 14.0985L13.3582 14.0711L13.1847 14.3688C12.6652 15.26 11.7577 15.796 10.7927 15.8908H10.3629C10.2428 15.8908 10.1253 15.8839 10.0087 15.8701C9.64068 15.8141 9.27697 15.6909 8.93676 15.4961L8.8219 15.4315C7.34097 14.5843 6.82847 12.6909 7.6838 11.2232L7.99617 10.6871C8.24732 10.3556 8.44375 10.0229 8.62225 9.72069C8.75411 9.49738 8.87619 9.29066 9.00331 9.1132L10.3619 6.74114C10.384 6.6801 10.4081 6.61972 10.4341 6.5601L10.6568 6.17745C10.7821 5.962 10.9309 5.76722 11.0971 5.594C11.1064 5.5842 11.1161 5.57479 11.1257 5.5655L11.1398 5.55177C11.3146 5.38716 11.5113 5.23979 11.7288 5.11568L11.8437 5.05018C12.3257 4.7744 12.853 4.64254 13.3742 4.63995C13.8954 4.64254 14.4227 4.7744 14.9047 5.05018L15.0196 5.11568C15.2371 5.23979 15.4338 5.38716 15.6087 5.55177C15.6185 5.56099 15.6281 5.5706 15.6374 5.58007L15.6374 5.58008L15.6513 5.594C15.8175 5.76722 15.9663 5.962 16.0916 6.17745L16.3143 6.5601Z" fill="#EA580C"/>
<ellipse cx="17.7689" cy="12.8" rx="3.23077" ry="3.2" fill="#F9D332"/>
</svg>