<svg viewBox="0 0 32 32" width="32" height="32"><title>Google Logo</title><clipPath id="g"><path d="M29.667 13.333H16v5.667h7.867C23.133 22.6 20.067 24.667 16 24.667c-4.8 0 -8.667 -3.867 -8.667 -8.667s3.867 -8.667 8.667 -8.667c2.067 0 3.933 0.733 5.4 1.933l4.267 -4.267C23.067 2.733 19.733 1.333 16 1.333 7.867 1.333 1.333 7.867 1.333 16s6.533 14.667 14.667 14.667c7.333 0 14 -5.333 14 -14.667 0 -0.867 -0.133 -1.8 -0.333 -2.667"/></clipPath><g class="colors" clip-path="url(#g)"><path fill="#FBBC05" d="M0 24.667V7.333l11.333 8.667z"/><path fill="#EA4335" d="m0 7.333 11.333 8.667 4.667 -4.067L32 9.333V0H0z"/><path fill="#34A853" d="m0 24.667 20 -15.333 5.267 0.667L32 0v32H0z"/><path fill="#4285F4" d="M32 32 11.333 16l-2.667 -2 23.333 -6.667z"/></g></svg>