<svg width="577" height="636" viewBox="0 0 577 636" fill="none" xmlns="http://www.w3.org/2000/svg">
<g clip-path="url(#clip0_19_1828)">
<path d="M145 648.528V133L289 216.444V732L145 648.528Z" fill="#E9AB00"/>
<path d="M145 572.333V1116L289 1032.64V489L145 572.333Z" fill="#020617"/>
<path d="M289 216.315V383L433 299.657V133L289 216.315Z" fill="#020617"/>
<path d="M433 466.423V1006L577 922.549V383L433 466.423Z" fill="#020617"/>
<path d="M1.00077 1039.59L1 489L144.999 572.386L145 1123L1.00077 1039.59Z" fill="#F87171"/>
<path d="M144.682 406L1 489.514L145.318 573L289 489.514L144.682 406Z" fill="#E0978B"/>
<path d="M289 929.59L289 383L434 466.382L434 1013L289 929.59Z" fill="#93C5FD"/>
<path d="M288.682 50L145 133.514L289.318 217L433 133.514L288.682 50Z" fill="#E8D5AC"/>
<path d="M432.682 300L289 383.514L433.318 467L577 383.514L432.682 300Z" fill="#7FA9D1"/>
</g>
<defs>
<clipPath id="clip0_19_1828">
<rect width="577" height="892" fill="white"/>
</clipPath>
</defs>
</svg>
